<?xml version="1.0" standalone="no"?>
<!DOCTYPE svg PUBLIC "-//W3C//DTD SVG 20010904//EN"
 "http://www.w3.org/TR/2001/REC-SVG-20010904/DTD/svg10.dtd">
<svg version="1.0" xmlns="http://www.w3.org/2000/svg"
 width="309.000000pt" height="286.000000pt" viewBox="0 0 309.000000 286.000000"
 preserveAspectRatio="xMidYMid meet">
<metadata>
Created by potrace 1.16, written by Peter Selinger 2001-2019
</metadata>
<g transform="translate(0.000000,286.000000) scale(0.100000,-0.100000)"
fill="#000000" stroke="none">
<path d="M336 2832 c18 -84 46 -188 55 -204 6 -11 9 -22 6 -24 -2 -3 -91 34
-196 82 -106 47 -194 84 -196 82 -10 -10 46 -221 79 -296 68 -158 195 -321
308 -393 39 -26 47 -35 42 -54 -8 -32 14 -142 37 -188 28 -54 97 -121 157
-151 47 -24 62 -41 62 -71 0 -8 9 -38 20 -68 39 -105 142 -193 260 -224 l67
-17 -57 -27 c-65 -30 -242 -184 -265 -230 -26 -49 -62 -161 -75 -229 -25 -139
-65 -184 -214 -240 -214 -81 -257 -106 -282 -167 -8 -18 -14 -44 -14 -59 0
-26 1 -26 53 -20 37 5 58 14 72 31 24 28 52 42 170 85 120 44 178 73 226 117
50 45 74 92 99 190 36 144 151 327 244 390 69 47 164 74 284 80 102 6 102 6
154 -26 l52 -33 37 44 c35 40 36 44 21 61 -26 30 -170 94 -257 116 -44 11
-128 26 -186 34 -123 17 -191 47 -238 104 -38 46 -61 112 -61 173 l0 47 -62
23 c-129 47 -205 161 -180 269 6 25 13 53 16 61 4 11 -12 25 -60 49 -119 62
-220 173 -298 330 -21 40 -35 75 -33 77 3 3 109 -43 302 -131 17 -8 52 -21 78
-30 27 -9 73 -32 102 -50 29 -19 54 -32 56 -31 2 2 101 -40 219 -93 198 -90
215 -99 213 -122 -15 -197 -15 -226 2 -284 25 -89 62 -150 127 -210 69 -64
151 -105 268 -135 124 -32 233 -76 307 -126 l65 -44 42 32 c22 18 43 33 45 35
7 5 -33 45 -78 76 l-44 30 6 63 c8 79 38 152 82 194 30 29 43 34 126 44 l92
11 -99 80 -98 80 258 3 c293 3 322 -2 378 -58 45 -45 50 -64 12 -50 -82 32
-204 -10 -259 -89 -25 -35 -30 -52 -29 -99 0 -87 32 -138 178 -283 133 -133
165 -183 166 -254 0 -45 -47 -156 -58 -138 -9 15 -95 83 -104 83 -4 0 -19 -23
-33 -50 l-26 -51 54 -49 c99 -90 142 -202 157 -405 12 -171 41 -265 108 -352
l24 -33 -46 0 -46 0 0 -60 0 -60 180 0 180 0 0 59 0 59 -47 11 c-146 37 -217
153 -234 386 -11 143 -27 223 -64 302 -23 51 -23 53 -6 75 10 13 31 48 47 78
25 48 29 66 29 140 0 127 -23 168 -188 338 -141 145 -168 186 -149 227 20 45
65 58 210 63 116 4 132 7 128 21 -2 9 -7 34 -11 55 -16 95 -98 197 -186 230
-39 15 -93 16 -498 14 l-454 -3 127 -104 128 -103 -38 -39 c-35 -36 -42 -39
-94 -39 -105 0 -173 54 -205 163 -19 63 -19 114 0 246 8 58 12 108 8 112 -7 5
-1080 489 -1221 550 l-42 18 6 -27z m1144 -649 c-3 -27 -5 -93 -5 -148 0 -85
4 -111 29 -178 16 -43 38 -88 50 -99 31 -30 133 -76 183 -84 24 -3 46 -10 49
-15 3 -5 0 -36 -7 -69 -10 -50 -15 -60 -28 -55 -9 4 -56 18 -106 31 -182 51
-248 84 -310 157 -74 86 -88 173 -59 364 8 58 14 107 12 109 -2 2 -166 76
-363 165 -198 88 -366 166 -374 172 -15 12 -61 112 -61 132 0 7 209 -81 498
-211 l497 -224 -5 -47z"/>
<path d="M2107 908 c-24 -94 -48 -222 -44 -231 2 -7 29 -21 58 -31 l54 -20
-30 -12 c-49 -21 -172 -17 -278 10 -52 13 -169 54 -259 89 -192 77 -255 91
-380 85 -111 -5 -170 -31 -235 -101 -50 -54 -72 -94 -93 -171 l-16 -59 -225
-78 c-123 -42 -235 -81 -248 -86 -22 -9 -21 -11 48 -94 l72 -84 -111 -3 -110
-3 0 -59 0 -60 235 0 c143 0 235 4 235 10 0 5 -38 54 -85 109 -47 55 -86 106
-87 112 -2 7 78 40 192 79 l194 68 12 64 c7 35 19 80 27 99 15 37 73 109 88
109 4 0 20 -20 35 -45 32 -56 27 -85 -21 -114 -19 -11 -35 -25 -35 -31 0 -17
52 -90 64 -90 27 1 93 59 114 100 28 57 28 102 -3 168 l-24 53 37 -6 c93 -15
147 -32 282 -86 188 -75 305 -109 408 -116 l82 -6 0 -68 0 -69 60 0 60 0 0 79
c0 74 2 80 23 86 12 4 37 19 55 32 l34 25 53 -37 c66 -45 150 -132 169 -177 9
-18 28 -75 43 -125 l27 -93 53 0 c49 0 53 2 53 24 0 14 -5 37 -11 53 -5 15
-17 59 -25 97 -19 89 -55 155 -124 224 -59 59 -179 142 -272 188 -62 30 -66
38 -49 104 24 91 24 87 -17 95 -20 3 -47 9 -58 11 -16 4 -23 0 -27 -18z"/>
<path d="M1460 468 l0 -73 -115 -69 c-63 -38 -115 -73 -115 -80 0 -6 14 -33
30 -61 16 -27 30 -53 30 -57 0 -5 -36 -8 -80 -8 l-80 0 0 -60 0 -60 185 0
c102 0 185 2 185 6 0 3 -25 48 -55 101 -35 60 -52 100 -47 105 6 6 45 31 88
57 l79 47 3 91 3 90 -48 19 c-26 10 -51 21 -55 22 -5 2 -8 -29 -8 -70z"/>
<path d="M2310 301 c0 -77 1 -80 40 -130 l40 -51 -75 0 -75 0 0 -60 0 -60 195
0 c107 0 195 3 195 6 0 3 -45 63 -100 132 l-100 127 0 58 0 57 -60 0 -60 0 0
-79z"/>
</g>
</svg>
